<svg width="94" height="17" viewBox="0 0 94 17" fill="none" xmlns="http://www.w3.org/2000/svg">
<g clip-path="url(#clip0_63_1105)">
<path d="M85.1107 16.4851C84.8231 16.4851 84.5355 16.3723 84.3156 16.1524C83.8758 15.7126 83.8758 14.9964 84.3156 14.5565L90.3044 8.56769L84.3156 2.57886C83.8758 2.13901 83.8758 1.42283 84.3156 0.982969C84.7555 0.543112 85.4716 0.543112 85.9115 0.982969L93.4962 8.56769L85.9115 16.1524C85.6916 16.3723 85.404 16.4851 85.1164 16.4851H85.1107Z" fill="#BD84FA"/>
<path d="M71.2495 16.4851C70.9619 16.4851 70.6743 16.3723 70.4544 16.1524C70.0145 15.7126 70.0145 14.9964 70.4544 14.5565L76.4432 8.56769L70.4544 2.57886C70.0145 2.13901 70.0145 1.42283 70.4544 0.982969C70.8943 0.543112 71.6104 0.543112 72.0503 0.982969L79.635 8.56769L72.0503 16.1524C71.8304 16.3723 71.5428 16.4851 71.2552 16.4851H71.2495Z" fill="#43ABFC"/>
<path d="M57.3884 16.4851C57.1008 16.4851 56.8132 16.3723 56.5933 16.1524C56.1535 15.7126 56.1535 14.9964 56.5933 14.5565L62.5821 8.56769L56.5933 2.57886C56.1535 2.13901 56.1535 1.42283 56.5933 0.982969C57.0332 0.543112 57.7494 0.543112 58.1892 0.982969L65.7739 8.56769L58.1892 16.1524C57.9693 16.3723 57.6817 16.4851 57.3941 16.4851H57.3884Z" fill="#BD84FA"/>
<path d="M43.5272 16.4851C43.2396 16.4851 42.952 16.3723 42.7321 16.1524C42.2923 15.7126 42.2923 14.9964 42.7321 14.5565L48.7209 8.56769L42.7321 2.57886C42.2923 2.13901 42.2923 1.42283 42.7321 0.982969C43.172 0.543112 43.8882 0.543112 44.328 0.982969L51.9127 8.56769L44.328 16.1524C44.1081 16.3723 43.8205 16.4851 43.5329 16.4851H43.5272Z" fill="#43ABFC"/>
<path d="M29.6662 16.4851C29.3786 16.4851 29.091 16.3723 28.871 16.1524C28.4312 15.7126 28.4312 14.9964 28.871 14.5565L34.8599 8.56769L28.871 2.57886C28.4312 2.13901 28.4312 1.42283 28.871 0.982969C29.3109 0.543112 30.0271 0.543112 30.4669 0.982969L38.0516 8.56769L30.4669 16.1524C30.247 16.3723 29.9594 16.4851 29.6718 16.4851H29.6662Z" fill="#BD84FA"/>
<path d="M15.805 16.4851C15.5174 16.4851 15.2298 16.3723 15.0098 16.1524C14.57 15.7126 14.57 14.9964 15.0098 14.5565L20.9987 8.56769L15.0098 2.57886C14.57 2.13901 14.57 1.42283 15.0098 0.982969C15.4497 0.543112 16.1659 0.543112 16.6057 0.982969L24.1904 8.56769L16.6057 16.1524C16.3858 16.3723 16.0982 16.4851 15.8106 16.4851H15.805Z" fill="#43ABFC"/>
<path d="M1.94395 16.4852C1.65635 16.4852 1.36875 16.3724 1.14882 16.1525C0.708962 15.7126 0.708962 14.9964 1.14882 14.5566L7.13765 8.56775L1.14882 2.57892C0.703323 2.13906 0.703323 1.42852 1.14882 0.988664C1.58868 0.543167 2.29922 0.543167 2.73907 0.988664L10.3238 8.57339L2.73907 16.1525C2.51915 16.3724 2.23155 16.4852 1.94395 16.4852Z" fill="#BD84FA"/>
</g>
<defs>
<clipPath id="clip0_63_1105">
<rect width="92.6746" height="15.8292" fill="white" transform="translate(0.81604 0.655762)"/>
</clipPath>
</defs>
</svg>
