<?xml version="1.0" encoding="utf-8"?>
<!-- Generator: Adobe Illustrator 28.0.0, SVG Export Plug-In . SVG Version: 6.00 Build 0)  -->
<svg version="1.1" id="レイヤー_1" xmlns="http://www.w3.org/2000/svg" xmlns:xlink="http://www.w3.org/1999/xlink" x="0px"
	 y="0px" viewBox="0 0 448 512" style="enable-background:new 0 0 448 512;" xml:space="preserve">
<style type="text/css">
	.st0{fill:#FFFFFF;}
</style>
<path class="st0" d="M208,0h124.1C344.8,0,357,5.1,366,14.1L433.9,82c9,9,14.1,21.2,14.1,33.9V336c0,26.5-21.5,48-48,48H208
	c-26.5,0-48-21.5-48-48V48C160,21.5,181.5,0,208,0z M48,128h80v64H64v256h192v-32h64v48c0,26.5-21.5,48-48,48H48
	c-26.5,0-48-21.5-48-48V176C0,149.5,21.5,128,48,128z"/>
</svg>
