<?xml version="1.0" encoding="UTF-8"?>
<svg id="_レイヤー_2" data-name="レイヤー 2" xmlns="http://www.w3.org/2000/svg" viewBox="0 0 523.82 73.51">
  <defs>
    <style>
      .cls-1 {
        fill: #fff;
        stroke-width: 0px;
      }
    </style>
  </defs>
  <g id="_レイヤー_1-2" data-name="レイヤー 1">
    <g>
      <g>
        <g>
          <path class="cls-1" d="M34.6,10.61v52.3c0,.25.25.41.45.29l23.8-13.22c.1-.06.17-.17.17-.29v-26.24c0-.12-.07-.24-.17-.29l-23.8-12.83c-.21-.11-.45.05-.45.29ZM52.3,44.62l-7.81,3.27c-.2.09-.43-.07-.43-.31v-22.08c0-.23.22-.39.43-.3l7.81,3.28c.12.05.2.17.2.3v15.52c0,.13-.08.26-.2.31Z"/>
          <path class="cls-1" d="M32.16,63.13c.21.11.45-.04.45-.29v-13.38c0-.18-.14-.33-.31-.33h-8.24s-.66.01-.69,0l-8.09-4.58c-.12-.05-.21-.17-.21-.31v-15.51c0-.14.08-.26.2-.31l8.09-4.17s.65,0,.69,0h8.24c.17,0,.31-.15.31-.33v-13.32c0-.24-.24-.4-.45-.29l-23.8,12.77c-.1.06-.17.17-.17.29v26.24c0,.12.06.23.17.29l23.8,13.22Z"/>
        </g>
        <path class="cls-1" d="M33.6,73.51c-.56,0-1.13-.14-1.64-.42L1.75,56.41c-1.08-.59-1.75-1.73-1.75-2.97V20.08c0-1.24.67-2.38,1.76-2.97L31.96.43c1.03-.57,2.26-.57,3.28,0l30.21,16.68c1.08.6,1.75,1.74,1.75,2.97v33.35c0,1.24-.67,2.37-1.75,2.97l-30.21,16.68c-.51.28-1.08.43-1.64.43ZM6.44,51.64l27.17,15,27.17-15v-29.76l-27.17-15L6.44,21.88v29.76ZM4.86,50.77h0s0,0,0,0ZM4.87,22.74h0s0,0,0,0ZM32.13,6.06s0,0,0,0h0ZM35.08,6.06h0s0,0,0,0Z"/>
      </g>
      <g>
        <path class="cls-1" d="M125.34,61.69h-9.97l-19.48-33.88v33.88h-9.29V13.99h10.45l18.99,33.3V13.99h9.29v47.7Z"/>
        <path class="cls-1" d="M163.46,22.44h-23.91v10.97h20.94v8.28h-20.94v20h-9.9V14.06h33.81v8.38Z"/>
        <path class="cls-1" d="M206.45,13.99v8.45h-14.27v39.25h-10.03V22.44h-14.33v-8.45h38.63Z"/>
      </g>
      <g>
        <path class="cls-1" d="M253.9,58.13c-3.56,3.26-8.11,4.89-13.66,4.89-6.86,0-12.25-2.2-16.18-6.6-3.93-4.42-5.89-10.48-5.89-18.18,0-8.33,2.23-14.74,6.7-19.25,3.88-3.93,8.82-5.89,14.82-5.89,8.02,0,13.89,2.63,17.6,7.9,2.05,2.96,3.15,5.92,3.3,8.9h-9.96c-.65-2.29-1.48-4.01-2.49-5.18-1.81-2.07-4.5-3.11-8.06-3.11s-6.48,1.46-8.57,4.38c-2.09,2.92-3.14,7.06-3.14,12.41s1.11,9.36,3.32,12.02,5.02,4,8.43,4,6.16-1.14,7.99-3.43c1.01-1.23,1.85-3.07,2.52-5.53h9.87c-.86,5.2-3.06,9.43-6.6,12.68Z"/>
        <path class="cls-1" d="M267.03,30.24c2.44-3.11,6.62-4.66,12.55-4.66,3.86,0,7.29.77,10.29,2.3,3,1.53,4.5,4.42,4.5,8.67v16.18c0,1.12.02,2.48.06,4.08.06,1.21.25,2.03.55,2.46.3.43.75.79,1.36,1.07v1.36h-10.03c-.28-.71-.47-1.38-.58-2.01-.11-.63-.19-1.34-.26-2.14-1.27,1.38-2.74,2.56-4.4,3.53-1.99,1.14-4.23,1.71-6.73,1.71-3.19,0-5.83-.91-7.91-2.73s-3.12-4.41-3.12-7.75c0-4.34,1.67-7.47,5.02-9.42,1.83-1.06,4.53-1.81,8.09-2.26l3.14-.39c1.7-.22,2.92-.49,3.66-.81,1.32-.56,1.97-1.43,1.97-2.62,0-1.45-.5-2.44-1.5-2.99-1-.55-2.48-.83-4.42-.83-2.18,0-3.72.54-4.63,1.62-.65.8-1.08,1.88-1.29,3.24h-8.9c.19-3.08,1.06-5.62,2.59-7.6ZM273.89,55.02c.86.71,1.92,1.07,3.17,1.07,1.98,0,3.81-.58,5.48-1.75,1.67-1.16,2.54-3.29,2.6-6.37v-3.43c-.58.37-1.17.66-1.76.89-.59.23-1.41.44-2.44.63l-2.07.39c-1.94.35-3.33.77-4.17,1.26-1.42.84-2.14,2.15-2.14,3.92,0,1.57.44,2.71,1.33,3.4Z"/>
        <path class="cls-1" d="M317.45,34.93c-3.71,0-6.2,1.21-7.48,3.62-.71,1.36-1.07,3.45-1.07,6.28v16.86h-9.29V26.42h8.8v6.15c1.42-2.35,2.66-3.96,3.72-4.82,1.73-1.44,3.97-2.17,6.73-2.17.17,0,.32,0,.44.02.12.01.38.03.79.05v9.45c-.58-.06-1.1-.11-1.55-.13-.45-.02-.82-.03-1.1-.03Z"/>
        <path class="cls-1" d="M355.95,14.06v47.63h-8.96v-4.89c-1.32,2.09-2.82,3.61-4.5,4.56-1.68.95-3.77,1.42-6.28,1.42-4.12,0-7.59-1.67-10.4-5-2.82-3.33-4.22-7.61-4.22-12.83,0-6.02,1.39-10.75,4.16-14.21,2.77-3.45,6.48-5.18,11.12-5.18,2.13,0,4.03.47,5.69,1.41s3.01,2.24,4.04,3.9V14.06h9.35ZM331.1,44.28c0,3.26.6,5.86,1.81,7.8,1.19,1.96,3,2.94,5.43,2.94s4.28-.97,5.55-2.91c1.27-1.94,1.9-4.45,1.9-7.54,0-4.31-1.02-7.4-3.04-9.25-1.25-1.12-2.69-1.68-4.34-1.68-2.51,0-4.36,1.02-5.53,3.06-1.18,2.04-1.76,4.57-1.76,7.59Z"/>
      </g>
      <g>
        <path class="cls-1" d="M397.35,61.69h-20.55V13.99h20.55c2.96.04,5.41.39,7.38,1.04,3.34,1.1,6.05,3.12,8.12,6.05,1.66,2.37,2.79,4.94,3.4,7.7.6,2.76.91,5.39.91,7.9,0,6.34-1.27,11.71-3.82,16.11-3.45,5.93-8.78,8.9-15.98,8.9ZM404.76,26.16c-1.53-2.59-4.56-3.88-9.09-3.88h-9.19v31.13h9.19c4.7,0,7.98-2.32,9.84-6.96,1.01-2.54,1.52-5.58,1.52-9.09,0-4.85-.75-8.59-2.26-11.2Z"/>
        <path class="cls-1" d="M452.45,51.33c-.24,2.09-1.33,4.22-3.27,6.37-3.02,3.43-7.25,5.14-12.69,5.14-4.49,0-8.44-1.44-11.87-4.34-3.43-2.89-5.14-7.59-5.14-14.11,0-6.1,1.55-10.79,4.64-14.04,3.09-3.26,7.11-4.89,12.05-4.89,2.93,0,5.58.55,7.93,1.65,2.35,1.1,4.29,2.84,5.83,5.21,1.38,2.09,2.28,4.52,2.69,7.28.24,1.62.33,3.95.29,6.99h-24.14c.13,3.54,1.24,6.02,3.33,7.44,1.27.88,2.8,1.33,4.59,1.33,1.9,0,3.44-.54,4.63-1.62.65-.58,1.22-1.39,1.72-2.43h9.42ZM443.32,40.52c-.15-2.44-.89-4.29-2.22-5.55s-2.97-1.89-4.93-1.89c-2.13,0-3.79.67-4.97,2.01-1.18,1.34-1.91,3.15-2.22,5.44h14.33Z"/>
        <path class="cls-1" d="M487.97,39.07h-9.45c-.17-1.32-.61-2.5-1.33-3.56-1.04-1.42-2.64-2.14-4.82-2.14-3.11,0-5.23,1.54-6.37,4.63-.6,1.64-.91,3.82-.91,6.54s.3,4.67.91,6.25c1.1,2.93,3.17,4.4,6.21,4.4,2.16,0,3.69-.58,4.6-1.75.91-1.16,1.46-2.67,1.65-4.53h9.42c-.22,2.8-1.23,5.46-3.04,7.96-2.89,4.03-7.17,6.05-12.85,6.05s-9.85-1.68-12.52-5.05-4.01-7.73-4.01-13.1c0-6.06,1.48-10.78,4.43-14.14s7.03-5.05,12.23-5.05c4.42,0,8.04.99,10.86,2.98,2.82,1.99,4.48,5.49,5,10.52Z"/>
        <path class="cls-1" d="M523.82,61.69h-11.13l-8.45-15.08-3.82,3.98v11.1h-9.06V14.15h9.06v25.69l11.49-13.27h11.42l-12.33,13.49,12.81,21.62Z"/>
      </g>
    </g>
  </g>
</svg>